<svg version="1.1" xmlns="http://www.w3.org/2000/svg" viewBox="0 0 1024 1024">
  <title>palette</title>
  <path d="M833.706667 216.746667A452.693333 452.693333 0 0 0 508.16 85.333333a426.666667 426.666667 0 0 0-2.133333 853.333334 110.08 110.08 0 0 0 107.946666-80.64 107.52 107.52 0 0 0-24.32-97.28 21.333333 21.333333 0 0 1 15.786667-35.413334h70.4A262.4 262.4 0 0 0 938.666667 483.413333a361.813333 361.813333 0 0 0-104.96-266.666666zM677.546667 640h-70.4a106.24 106.24 0 0 0-79.786667 177.066667 20.906667 20.906667 0 0 1 5.12 20.906666c-2.133333 8.96-11.946667 14.506667-25.173333 15.36a341.333333 341.333333 0 0 1-333.653334-388.693333A345.6 345.6 0 0 1 508.586667 170.666667H512a361.386667 361.386667 0 0 1 260.266667 105.813333 277.333333 277.333333 0 0 1 81.066666 203.52A177.92 177.92 0 0 1 677.546667 640z"  /><path d="M512 277.333333m-64 0a64 64 0 1 0 128 0 64 64 0 1 0-128 0Z"  /><path d="M650.666667 307.2a64 64 0 1 0 87.466666 23.466667 64 64 0 0 0-87.466666-23.466667zM373.333333 307.2a64 64 0 1 0 23.466667 87.466667 64 64 0 0 0-23.466667-87.466667zM262.826667 480.426667a64 64 0 1 0 88.746666 17.066666 63.573333 63.573333 0 0 0-88.746666-17.066666z"  />
  </svg>